<?xml version="1.0" standalone="no"?><!DOCTYPE svg PUBLIC "-//W3C//DTD SVG 1.1//EN" "http://www.w3.org/Graphics/SVG/1.1/DTD/svg11.dtd"><svg t="1616202933300" class="icon" viewBox="0 0 1024 1024" version="1.1" xmlns="http://www.w3.org/2000/svg" p-id="1611" xmlns:xlink="http://www.w3.org/1999/xlink" width="200" height="200"><defs><style type="text/css"></style></defs><path d="M438.081898 532.181276a266.090638 266.090638 0 0 0 0-532.181276C291.131984 0 172.005789 119.140725 172.005789 266.090638s119.126195 266.090638 266.076109 266.090638zM302.334118 130.328329a192.005449 192.005449 0 1 1-56.22861 135.762309 190.712336 190.712336 0 0 1 56.22861-135.762309zM641.202304 576.81546H234.976021C111.985017 576.81546 11.369222 677.416726 11.369222 800.393201s100.615795 223.606799 223.606799 223.606799h406.226283c122.991004 0 223.606799-100.630324 223.6068-223.606799S764.193309 576.81546 641.202304 576.81546z m105.526718 329.133517a148.38832 148.38832 0 0 1-105.526718 43.980363H234.976021a149.50708 149.50708 0 0 1 0-299.014161h406.226283a149.231022 149.231022 0 0 1 105.526718 255.033798z" fill="#2c2c2c" p-id="1612"></path><path d="M754.516757 246.258066m37.04986 0l184.014302 0q37.04986 0 37.049859 37.04986l0 0q0 37.04986-37.049859 37.049859l-184.014302 0q-37.04986 0-37.04986-37.049859l0 0q0-37.04986 37.04986-37.04986Z" fill="#2c2c2c" p-id="1613"></path><path d="M754.516757 360.298987m37.04986 0l184.014302 0q37.04986 0 37.049859 37.049859l0 0q0 37.04986-37.049859 37.04986l-184.014302 0q-37.04986 0-37.04986-37.04986l0 0q0-37.04986 37.04986-37.049859Z" fill="#2c2c2c" p-id="1614"></path><path d="M754.516757 458.081557m37.04986 0l184.014302 0q37.04986 0 37.049859 37.04986l0 0q0 37.04986-37.049859 37.049859l-184.014302 0q-37.04986 0-37.04986-37.049859l0 0q0-37.04986 37.04986-37.04986Z" fill="#2c2c2c" p-id="1615"></path></svg>