<?xml version="1.0" standalone="no"?><!DOCTYPE svg PUBLIC "-//W3C//DTD SVG 1.1//EN" "http://www.w3.org/Graphics/SVG/1.1/DTD/svg11.dtd"><svg t="1621693429944" class="icon" viewBox="0 0 1024 1024" version="1.1" xmlns="http://www.w3.org/2000/svg" p-id="2395" xmlns:xlink="http://www.w3.org/1999/xlink" width="128" height="128"><defs><style type="text/css"></style></defs><path d="M496.4352 446.6688H292.9664c-20.6848 0-35.7376-16.9984-35.7376-37.6832 0-20.6848 15.9744-37.6832 35.7376-37.6832h203.4688c20.6848 0 35.7376 16.9984 35.7376 37.6832 0.1024 20.6848-15.9744 37.6832-35.7376 37.6832zM302.1824 745.3696H687.104c20.6848 0 36.7616 16.9984 36.7616 36.7616v0.9216c0 20.6848-16.9984 36.7616-36.7616 36.7616H303.104c-20.6848 0-36.7616-16.896-36.7616-36.7616v-0.9216c-0.9216-19.8656 15.9744-36.7616 35.84-36.7616z m0 0M302.1824 559.0016H687.104c20.6848 0 36.7616 16.9984 36.7616 36.7616v0.9216c0 20.6848-16.9984 36.7616-36.7616 36.7616H303.104c-20.6848 0-36.7616-16.896-36.7616-36.7616v-0.9216c-0.9216-19.7632 15.9744-36.7616 35.84-36.7616z m0 0" p-id="2396"></path><path d="M833.536 987.0336H188.6208c-59.904 0-108.544-48.7424-108.544-108.544V139.8784c0-59.904 48.7424-108.544 108.544-108.544h411.648c32.256 0 58.4704 26.2144 58.4704 58.4704v156.7744c0 26.0096 21.1968 47.104 47.2064 47.104h167.2192c37.9904 0 68.9152 30.9248 68.9152 68.9152v515.7888c0 59.904-48.7424 108.6464-108.544 108.6464zM188.6208 92.7744c-26.0096 0-47.104 21.1968-47.104 47.104v738.5088c0 26.0096 21.1968 47.104 47.104 47.104H833.536c26.0096 0 47.104-21.1968 47.104-47.104V362.7008c0-4.096-3.3792-7.4752-7.4752-7.4752H705.8432c-59.904 0-108.6464-48.7424-108.6464-108.544V92.7744h-408.576z" p-id="2397"></path><path d="M885.9648 256.7168H757.0432c-26.624 0-48.2304-21.6064-48.2304-48.2304V79.5648a48.0256 48.0256 0 0 1 29.7984-44.544c18.1248-7.4752 38.7072-3.3792 52.5312 10.4448l128.9216 128.9216c13.824 13.824 17.92 34.5088 10.4448 52.5312s-24.9856 29.7984-44.544 29.7984z m-115.712-61.44h83.7632l-83.7632-83.7632v83.7632z" p-id="2398"></path></svg>