<?xml version="1.0" standalone="no"?><!DOCTYPE svg PUBLIC "-//W3C//DTD SVG 1.1//EN" "http://www.w3.org/Graphics/SVG/1.1/DTD/svg11.dtd"><svg t="1621693603028" class="icon" viewBox="0 0 1024 1024" version="1.1" xmlns="http://www.w3.org/2000/svg" p-id="4431" xmlns:xlink="http://www.w3.org/1999/xlink" width="128" height="128"><defs><style type="text/css"></style></defs><path d="M824.871507 0a56.885729 56.885729 0 0 1 56.885729 56.885729v478.750291a284.428643 284.428643 0 0 0-284.428643 488.36398L85.357036 1023.943114a56.885729 56.885729 0 0 1-56.885729-56.885728V56.885729a56.885729 56.885729 0 0 1 56.885729-56.885729h739.514471zM341.342814 611.521582H170.685629l-5.802345 0.3982A42.664296 42.664296 0 0 0 170.685629 696.850175h170.657185l5.802345-0.3982A42.664296 42.664296 0 0 0 341.342814 611.521582z m280.901728-227.542914H174.155658l-5.745459 0.3982a42.664296 42.664296 0 0 0 5.802345 84.930393h447.918227l5.802344-0.3982a42.664296 42.664296 0 0 0-5.745459-84.930393z m114.454086-227.542914h-563.168713l-5.802344 0.3982A42.664296 42.664296 0 0 0 173.529915 241.764346h563.168713l5.802344-0.3982a42.664296 42.664296 0 0 0-5.802344-84.930392z" p-id="4432"></path><path d="M954.798511 852.489528a37.203266 37.203266 0 0 1 0-55.292928 37.203266 37.203266 0 0 0-26.850064-64.792845 37.203266 37.203266 0 0 1-39.080495-39.080495 37.203266 37.203266 0 0 0-64.849731-26.850064 37.203266 37.203266 0 0 1-55.179157 0 37.203266 37.203266 0 0 0-64.84973 26.850064 37.203266 37.203266 0 0 1-39.080496 39.080495 37.203266 37.203266 0 0 0-26.850063 64.849731 37.203266 37.203266 0 0 1 0 55.179157 37.203266 37.203266 0 0 0 26.850063 64.84973 37.203266 37.203266 0 0 1 39.080496 39.080496 37.203266 37.203266 0 0 0 64.84973 26.850064 37.203266 37.203266 0 0 1 55.179157 0 37.203266 37.203266 0 0 0 64.849731-26.850064 37.203266 37.203266 0 0 1 39.080495-39.080496 37.203266 37.203266 0 0 0 26.850064-64.84973z m-158.426754 41.697239a69.400589 69.400589 0 1 1-0.227543-138.744292A69.400589 69.400589 0 0 1 796.428643 894.186767h-0.113772z" p-id="4433"></path></svg>