<?xml version="1.0" standalone="no"?><!DOCTYPE svg PUBLIC "-//W3C//DTD SVG 1.1//EN" "http://www.w3.org/Graphics/SVG/1.1/DTD/svg11.dtd"><svg t="1621693875974" class="icon" viewBox="0 0 1024 1024" version="1.1" xmlns="http://www.w3.org/2000/svg" p-id="6509" width="64" height="64" xmlns:xlink="http://www.w3.org/1999/xlink"><defs><style type="text/css"></style></defs><path d="M921.176 661.233a41.862 41.862 0 0 0 41.742-41.863V186.51A186.631 186.631 0 0 0 776.408 0H197.33A186.631 186.631 0 0 0 11.303 186.51v651.462A186.752 186.752 0 0 0 197.813 1024h437.203a41.862 41.862 0 0 0 0-83.604H197.814A103.027 103.027 0 0 1 94.907 837.489V186.03A102.907 102.907 0 0 1 197.814 83.121H776.89A102.907 102.907 0 0 1 879.917 186.51v432.86a41.983 41.983 0 0 0 41.26 41.862z" p-id="6510"></path><path d="M197.814 294.123h589.813a41.862 41.862 0 0 0 0-83.605H197.814a41.862 41.862 0 1 0 0 83.605z m635.295 205.813a41.862 41.862 0 0 0-41.863-41.5H197.814a41.862 41.862 0 1 0 0 83.604h593.432a41.983 41.983 0 0 0 41.863-42.104zM197.814 705.749a41.862 41.862 0 1 0 0 83.604h395.702a41.862 41.862 0 1 0 0-83.604z m770.533 94.583H902.96v-65.388a41.862 41.862 0 1 0-83.604 0v65.388h-65.388a41.862 41.862 0 1 0 0 83.604h65.629v65.387a41.862 41.862 0 1 0 83.604 0v-65.387h65.387a41.862 41.862 0 1 0 0-83.604z" p-id="6511"></path></svg>