<?xml version="1.0" standalone="no"?><!DOCTYPE svg PUBLIC "-//W3C//DTD SVG 1.1//EN" "http://www.w3.org/Graphics/SVG/1.1/DTD/svg11.dtd"><svg t="1616203776452" class="icon" viewBox="0 0 1024 1024" version="1.1" xmlns="http://www.w3.org/2000/svg" p-id="3962" xmlns:xlink="http://www.w3.org/1999/xlink" width="200" height="200"><defs><style type="text/css"></style></defs><path d="M247.5 261c0-105.1 86.9-191.9 191.9-191.9s192 86.9 192 191.9-86.9 192-192 192c-105 0-191.9-86.9-191.9-192zM124.8 945c-31.2 0.5-57.2-24.4-57.7-56.2v-1.6c-0.1-191.9 148.7-351 337-369.2h39.5c43.7-3.6 105.1-14.6 137.3-43.7l14.6-10.9c61.4-51 97.8-123.3 97.8-202.9 0-141.5-116-256.9-260.6-256.9-134.2 0-249.7 116-249.7 256.9 0 79.6 35.9 151.9 97.8 202.9l18.2 10.9-18.2 7.3C113.8 546.6 2 705.8 2 886.8c-0.5 67.6 53.6 122.8 120.7 123.3H454c10.9 0 28.6-10.9 28.6-32.8 0-25.5-18.2-32.8-28.6-32.8H124.8v0.5z m835.8-144.6c-54.1 7.3-94.1 51-94.1 108.2 0 10.9 3.6 25.5 7.3 32.8L827 966.9l-18.2-18.2c-21.3-14.6-39.5-21.3-61.4-21.3-18.2 0-39.5 7.3-61.4 21.3-7.3 7.3-14.6 10.9-18.2 18.2l-43.7-25.5c3.1-7.3 7.3-21.3 7.3-32.8 0-54.6-40.1-100.9-94.1-108.2 0-7.3-3.6-21.3-3.6-36.4 0-10.9 3.6-25.5 3.6-36.4 54.1-7.3 94.1-51 94.1-108.7 0-10.9-3.1-25.5-7.3-32.8l46.8-25.5c3.1 3.6 10.4 10.9 18.2 14.6 21.3 14.6 39.5 21.3 57.7 21.3 18.2 0 35.9-7.3 57.7-21.3 7.3-7.3 14.6-10.9 18.2-14.6l46.8 25.5c-3.1 7.3-7.3 21.3-7.3 32.8 0 54.6 40.1 100.9 94.7 108.7 0 7.3 3.1 21.3 3.1 36.4 4.8 10.9 0.6 25.5 0.6 36.4z m51-90.5c-3.6-18.2-18.2-32.8-32.8-32.8h-3.6c-32.8 0-57.7-25.5-57.7-57.7 0-7.3 3.1-18.2 3.1-21.3 7.3-18.2 0-39.5-14.6-51l-65-36.4h-17.7c-10.4 0-25.5 3.1-32.8 14.6-7.3 7.3-28.6 25.5-43.7 25.5-14.6 0-36.4-18.2-46.8-25.5-7.3-7.3-18.2-14.6-32.8-14.6-7.3 0-10.9 0-14.6 3.1L584 550.2c-14.6 10.9-21.3 32.8-14.6 51 0 0 3.1 10.9 3.1 21.3 0.5 31.2-24.4 57.2-55.7 57.7H511c-14.6 0-28.6 14.6-32.8 32.8 0 3.6-7.3 28.6-7.3 54.1 0 21.3 3.1 51 7.3 54.1 3.6 18.2 18.2 32.8 32.8 32.8h3.6c32.8 0 57.7 25.5 57.7 57.7 0 7.3-3.1 18.2-3.1 21.3-7.3 18.2 0 39.5 14.6 51l65 36.4c7.3-3.6 10.9-3.6 18.2-3.6 10.9 0 25.5-3.1 32.8-14.6 7.3-7.3 28.6-28.6 46.8-28.6 14.6 0 39.5 18.2 46.8 28.6 7.3 7.3 18.2 14.6 32.8 14.6 7.3 0 10.9 0 18.2-3.1l65-36.4c14.6-10.9 21.3-32.8 14.6-51 0 0-3.1-10.4-3.1-21.3 0-32.8 25.5-57.7 57.7-57.7h3.1c14.6 0 28.6-14.6 32.8-32.8 0 0 7.3-28.6 7.3-54.1-7.1-17.7-10.2-46.8-10.2-50.5zM747.4 810.8c-25.5 0-46.8-21.3-46.8-46.8 0-25.5 21.3-46.8 46.8-46.8s46.8 21.3 46.8 46.8c0.5 25.5-21.9 46.8-46.8 46.8z m17.7-144.6c-69.2-14.6-130.6 46.8-116 119.1 7.3 39.5 39.5 72.3 79.6 79.6 69.2 14.6 130.6-46.8 116-116-6.8-42.6-39.6-75.4-79.6-82.7z" p-id="3963"></path></svg>