<?xml version="1.0" standalone="no"?><!DOCTYPE svg PUBLIC "-//W3C//DTD SVG 1.1//EN" "http://www.w3.org/Graphics/SVG/1.1/DTD/svg11.dtd"><svg t="1616203300894" class="icon" viewBox="0 0 1024 1024" version="1.1" xmlns="http://www.w3.org/2000/svg" p-id="1494" xmlns:xlink="http://www.w3.org/1999/xlink" width="200" height="200"><defs><style type="text/css"></style></defs><path d="M510.62 610.23A108 108 0 0 1 402.79 502.4V454a107.83 107.83 0 0 1 215.66 0v48.4a108 108 0 0 1-107.83 107.83z m0-216.11A59.9 59.9 0 0 0 450.79 454v48.4a59.83 59.83 0 0 0 119.66 0V454a59.9 59.9 0 0 0-59.83-59.88zM762.82 813.67h-504.4v-63.52a99.55 99.55 0 0 1 99.44-99.44h305.52a99.55 99.55 0 0 1 99.44 99.44z m-456.4-48h408.4v-15.52a51.5 51.5 0 0 0-51.44-51.44H357.86a51.5 51.5 0 0 0-51.44 51.44zM215.92 381.73a73.38 73.38 0 0 1-73.3-73.3v-28.5a73.31 73.31 0 0 1 146.61 0v28.5a73.39 73.39 0 0 1-73.31 73.3z m0-127.1a25.33 25.33 0 0 0-25.3 25.3v28.5a25.31 25.31 0 0 0 50.61 0v-28.5a25.33 25.33 0 0 0-25.31-25.3zM370.48 564.87H54.05v-76.24a68.45 68.45 0 0 1 68.37-68.37h179.69a68.45 68.45 0 0 1 68.37 68.37z m-268.43-48h220.43v-28.24a20.4 20.4 0 0 0-20.37-20.37H122.42a20.4 20.4 0 0 0-20.37 20.37zM812.63 381.73a73.38 73.38 0 0 1-73.3-73.3v-28.5a73.31 73.31 0 0 1 146.61 0v28.5a73.39 73.39 0 0 1-73.31 73.3z m0-127.1a25.33 25.33 0 0 0-25.3 25.3v28.5a25.31 25.31 0 0 0 50.61 0v-28.5a25.33 25.33 0 0 0-25.31-25.3zM967.19 564.87H650.76v-76.24a68.45 68.45 0 0 1 68.37-68.37h179.69a68.45 68.45 0 0 1 68.37 68.37z m-268.43-48h220.43v-28.24a20.4 20.4 0 0 0-20.37-20.37H719.13a20.4 20.4 0 0 0-20.37 20.37z" p-id="1495"></path></svg>