<?xml version="1.0" standalone="no"?><!DOCTYPE svg PUBLIC "-//W3C//DTD SVG 1.1//EN" "http://www.w3.org/Graphics/SVG/1.1/DTD/svg11.dtd"><svg t="1621951222937" class="icon" viewBox="0 0 1024 1024" version="1.1" xmlns="http://www.w3.org/2000/svg" p-id="1767" xmlns:xlink="http://www.w3.org/1999/xlink" width="64" height="64"><defs><style type="text/css"></style></defs><path d="M943.752846 108.364845H76.962078C47.225741 108.364845 22.907646 84.473383 22.395686 54.609056 22.353022 24.488748 46.799107 0 76.962078 0H943.752846c30.205634 0 54.694382 24.488748 54.694382 54.651719a54.651719 54.651719 0 0 1-54.694382 53.670462z m-238.189342 234.221652H77.004741a53.670462 53.670462 0 0 1-54.609055-49.7881 54.651719 54.651719 0 0 1 54.609055-58.534081h628.558763a53.670462 53.670462 0 0 1 51.750613 58.534081 52.689206 52.689206 0 0 1-51.750613 49.7881z m-278.164877 272.320002H77.004741a53.670462 53.670462 0 0 1-54.609055-53.670462c0-30.205634 24.446085-54.694382 54.609055-54.694383h350.393886c30.205634 0 54.651719 24.488748 54.651719 54.694383a53.670462 53.670462 0 0 1-54.609056 53.670462zM306.362775 890.127607H77.004741a54.651719 54.651719 0 1 1 0-109.303438H306.362775a54.651719 54.651719 0 1 1 0 108.364845v0.938593z m619.812781 133.706859a41.980712 41.980712 0 0 1-25.384678-6.826132l-244.034217-138.570478h-97.571024a48.806843 48.806843 0 0 1-48.806843-48.806844v-244.034217c0-26.920558 21.843622-48.76418 48.806843-48.76418h104.439819l237.165422-140.575655a49.7881 49.7881 0 0 1 74.191522 41.980711v537.771208c-0.12799 17.363973-9.385931 33.320057-24.403422 41.980712a45.863074 45.863074 0 0 1-24.403422 5.844875z m-318.183075-243.010297h50.769356c12.457691-0.469297 24.872718 2.218493 36.093173 7.807388l182.513703 101.538713v-365.07007l-131.78701 79.055141-40.018199 24.403422a78.073884 78.073884 0 0 1-39.036942 9.769901H607.992481v142.495505z" p-id="1768"></path></svg>