<?xml version="1.0" standalone="no"?><!DOCTYPE svg PUBLIC "-//W3C//DTD SVG 1.1//EN" "http://www.w3.org/Graphics/SVG/1.1/DTD/svg11.dtd"><svg t="1616222381981" class="icon" viewBox="0 0 1280 1024" version="1.1" xmlns="http://www.w3.org/2000/svg" p-id="6424" xmlns:xlink="http://www.w3.org/1999/xlink" width="250" height="200"><defs><style type="text/css"></style></defs><path d="M1216 0H64a64 64 0 0 0-64 64v896a64 64 0 0 0 64 64h1152a64 64 0 0 0 64-64V64a64 64 0 0 0-64-64zM667.84 672a41.92 41.92 0 0 1-55.36 0L104 64h1072z m-274.88-162.56L64 902.08V115.84z m41.6 49.92l129.92 155.52 2.56 2.56a105.92 105.92 0 0 0 145.92 0l132.48-158.08L1180.8 960H99.2z m452.48-49.92L1216 115.84v786.24z" fill="" p-id="6425"></path></svg>