<?xml version="1.0" standalone="no"?><!DOCTYPE svg PUBLIC "-//W3C//DTD SVG 1.1//EN" "http://www.w3.org/Graphics/SVG/1.1/DTD/svg11.dtd"><svg t="1616203798443" class="icon" viewBox="0 0 1024 1024" version="1.1" xmlns="http://www.w3.org/2000/svg" p-id="5807" xmlns:xlink="http://www.w3.org/1999/xlink" width="200" height="200"><defs><style type="text/css"></style></defs><path d="M1003.706624 445.952L542.138624 14.848a47.872 47.872 0 0 0-65.28 0L15.290624 445.952a47.872 47.872 0 0 0 32.768 82.944h95.744V896a128 128 0 0 0 128 128H743.098624a128 128 0 0 0 128-128V528.896h99.84a47.872 47.872 0 0 0 32.768-82.944zM710.586624 814.848H307.898624a47.872 47.872 0 1 1 0-95.744h402.688a47.872 47.872 0 1 1 0 95.744z" p-id="5808"></path></svg>